<svg version="1" xmlns="http://www.w3.org/2000/svg" viewBox="0 0 70 70"><path fill="#DE2728" d="M0 0h70v70H0z"/><path fill-rule="evenodd" clip-rule="evenodd" fill="#FFF" d="M34.6 49.4c0-2.1 1.9-3.7 3.9-3.7h4.2c1.7 0 3-1.4 3-3v-4.3c0-1.7-1.4-3-3-3h-4.5c-2.1 0-3.7-1.9-3.7-3.9V27c0-2.1 1.9-3.7 3.9-3.7h4.3c1.7 0 3-1.3 3-3V16c0-1.7-1.4-3-3-3h-4.2c-1.7 0-3 1.4-3 3v4.3c0 2-1.6 3.9-3.7 3.9h-4.5c-1.7 0-3.1 1.4-3.1 3v4.3c0 1.7 1.4 3 3.1 3h4.3c2 0 3.9 1.6 3.9 3.7v4.6c0 2-1.6 3.9-3.7 3.9h-4.5c-1.7 0-3.1 1.4-3.1 3v4.2c0 1.7 1.4 3.1 3.1 3.1h4.3c1.7 0 3.1-1.4 3.1-3.1v-4.5z"/></svg>